<svg id="Capa_1" enable-background="new 0 0 501 501" height="512" viewBox="0 0 501 501" width="512" xmlns="http://www.w3.org/2000/svg"><g><path d="m467.984 256h-439.486c-12.913 0-23.089-11.109-21.841-23.962 12.043-124.064 116.618-221.038 243.843-221.038 125.555 0 229.051 94.444 243.321 216.166 1.803 15.374-10.357 28.834-25.837 28.834z" fill="#3342ae"/><path d="m495.5 256c0 16.348-1.601 32.322-4.655 47.773-.505 2.555-12.231 24.91-22.343 25.731-4.032.327-8.148.496-12.329.496-26.487 0-50.343-6.777-67.039-17.607-16.696 10.83-40.552 17.607-67.039 17.607s-50.343-6.777-67.039-17.607c-16.696 10.83-40.552 17.607-67.039 17.607-29.904 0-56.455-8.639-73.133-21.995-16.679 13.356-43.23 21.995-73.134 21.995-2.294 0-4.567-.051-6.819-.151-11.321-.502-24.348-23.912-24.776-26.076-3.054-15.451-4.655-31.425-4.655-47.773 0-10.855.706-21.545 2.074-32.027 10.558-2.562 22.093-3.973 34.176-3.973 29.904 0 56.455 8.639 73.133 21.995 16.679-13.356 43.229-21.995 73.134-21.995 26.487 0 50.343 6.777 67.039 17.607 16.696-10.83 40.551-17.607 67.039-17.607s50.343 6.777 67.039 17.607c16.696-10.83 40.551-17.607 67.039-17.607 13.308 0 25.953 1.711 37.358 4.788 1.299 10.221 1.969 20.638 1.969 31.212z" fill="#5766ce"/><path d="m490.845 303.773c-11.052 55.919-41.134 104.999-83.216 140.211-11.126.071-21.566.576-22.973 1.515-6.729 4.486-15.882 1.56-18.761-5.998l-34.184-89.732c-.457-1.2-.88-2.409-1.271-3.626-.391 1.218-.813 2.427-1.271 3.626l-34.184 89.732c-2.879 7.558-12.032 10.484-18.761 5.998-3.047-2.031-48.402-2.031-51.449 0-6.729 4.486-15.882 1.56-18.761-5.998l-34.184-89.732c-.457-1.2-.88-2.409-1.271-3.626-.391 1.218-.814 2.427-1.271 3.626l-34.184 89.732c-2.879 7.558-12.032 10.484-18.761 5.998-1.408-.938-11.848-1.443-22.973-1.515-42.082-35.212-72.163-84.292-83.216-140.211l6.01-24.039c3.162-12.65 15.875-20.435 28.58-17.503l12.704 2.932c4.916 1.134 10.049.623 14.694-1.345 12.017-5.091 24.936-5.091 36.953 0 4.645 1.968 9.778 2.479 14.694 1.345l12.704-2.932c12.705-2.932 25.417 4.854 28.58 17.503l5.485 21.94 5.485-21.94c3.162-12.65 15.875-20.435 28.58-17.503l12.704 2.932c4.916 1.134 10.049.623 14.694-1.345 12.017-5.091 24.936-5.091 36.953 0 4.645 1.968 9.778 2.479 14.694 1.345l12.704-2.932c12.705-2.932 25.417 4.854 28.58 17.503l5.485 21.94 5.485-21.94c3.162-12.65 15.875-20.435 28.58-17.503l12.705 2.932c4.916 1.134 10.049.623 14.694-1.345 12.017-5.091 24.936-5.091 36.953 0 4.645 1.968 9.778 2.479 14.694 1.345l12.704-2.932c12.705-2.932 25.417 4.854 28.58 17.503z" fill="#ececf1"/><path d="m192.496 349.769c-5.225-13.716-6.118-28.704-2.558-42.944l6.773-27.091c1.877-7.51 7.12-13.305 13.73-16.161l-5.815-1.342c-12.705-2.932-25.417 4.853-28.58 17.503l-6.773 27.091c-3.56 14.239-2.667 29.228 2.558 42.944l34.184 89.733c2.879 7.558 12.032 10.484 18.761 5.997 1.323-.882 2.451-1.995 3.341-3.27-.574-.825-1.059-1.737-1.437-2.728zm-71.378 52.344c-20.878 11.109-46.036 10.535-66.386-1.513l-3.553-2.104c-19.91-27.8-34.148-59.938-41.024-94.724l6.01-24.039c3.163-12.65 15.876-20.436 28.581-17.503l5.814 1.342c-6.609 2.858-35.06 101.095 70.558 138.541zm231.258-52.344c-5.225-13.716-6.118-28.704-2.558-42.944l6.773-27.091c1.877-7.51 7.12-13.305 13.73-16.161l-5.815-1.342c-12.705-2.932-25.417 4.853-28.58 17.503l-6.773 27.091c-3.56 14.239-2.667 29.228 2.558 42.944l34.184 89.733c2.879 7.558 12.032 10.484 18.761 5.997 1.323-.882 2.451-1.995 3.341-3.27-.574-.825-1.059-1.737-1.437-2.728z" fill="#d3d3d8"/><path d="m289.762 351.021c-7.294-6.545-.157-17.08-2.86-36.999-1.812-13.354-6.141-17.059-3.039-22.571 3.715-6.6 14.886-9.755 22.322-6.378 14.223 6.461 10.371 34.361 9.965 37.07-2.06 13.745-10.173 31.643-19.811 31.668-3.388.008-5.913-2.195-6.577-2.79zm-159.88 0c-7.294-6.545-.157-17.08-2.86-36.999-1.812-13.354-6.141-17.059-3.039-22.571 3.715-6.6 14.886-9.755 22.322-6.378 14.223 6.461 10.371 34.361 9.965 37.07-2.06 13.745-10.173 31.643-19.811 31.668-3.388.008-5.913-2.195-6.577-2.79zm319.76 0c-7.294-6.545-.157-17.08-2.86-36.999-1.812-13.354-6.141-17.059-3.039-22.571 3.715-6.6 14.886-9.755 22.322-6.378 14.223 6.461 10.371 34.361 9.965 37.07-2.06 13.745-10.173 31.643-19.811 31.668-3.388.008-5.913-2.195-6.577-2.79z" fill="#fff5f5"/><path d="m454.544 391.661c-43.91 65.911-118.905 109.339-204.044 109.339s-160.134-43.428-204.044-109.339c9.364 7.39 21.189 11.8 34.044 11.8h28.462c30.376 0 55-24.625 55-55v-24.039c0-4.78 3.874-8.654 8.654-8.654 4.779 0 8.654 3.874 8.654 8.654v24.039c0 30.375 24.624 55 55 55h28.462c30.376 0 55-24.625 55-55v-24.039c0-4.78 3.875-8.654 8.654-8.654 4.779 0 8.654 3.874 8.654 8.654v24.039c0 30.375 24.624 55 55 55h28.46c12.855 0 24.68-4.41 34.044-11.8z" fill="#f2bb88"/><path d="m319.699 491.091c-21.944 6.449-45.168 9.909-69.199 9.909-85.139 0-160.134-43.428-204.044-109.339 9.364 7.39 21.189 11.8 34.044 11.8h28.462c4.177 0 8.246-.466 12.156-1.348 47.643 54.539 117.702 88.993 195.808 88.993.925-.001 1.85-.005 2.773-.015z" fill="#e3a76f"/><path d="m356.461 426.678c13.507-3.888 30.782-2.124 32.718 4.09 2.419 7.762-19.615 20.823-29 25.654-10.816 5.568-35.396 15.937-39.782 9.667-4.591-6.564 12.132-32.523 36.064-39.411z" fill="#f2d1a5"/><path d="m264.25 404.5v80c0 4.143-3.358 7.5-7.5 7.5s-7.5-3.357-7.5-7.5v-80c0-4.143 3.358-7.5 7.5-7.5s7.5 3.357 7.5 7.5z" fill="#2b3894"/><path d="m272.75 207v200c0 5.523-4.477 10-10 10h-12c-5.523 0-10-4.477-10-10v-200c0-5.523 4.477-10 10-10h12c5.523 0 10 4.477 10 10z" fill="#199a8e"/><path d="m272.75 207v200c0 5.228-4.012 9.518-9.125 9.961-5.113-.443-9.125-4.733-9.125-9.961v-200c0-5.228 4.012-9.518 9.125-9.961 5.113.443 9.125 4.733 9.125 9.961z" fill="#20b7a1"/><path d="m291.75 0c-14.5 0-27.327 7.299-35 18.416-7.673-11.117-20.5-18.416-35-18.416-23.435 0-42.5 19.065-42.5 42.5s19.065 42.5 42.5 42.5c10.478 0 20.083-3.812 27.5-10.121v54.621c0 4.143 3.358 7.5 7.5 7.5s7.5-3.357 7.5-7.5v-54.621c7.417 6.309 17.022 10.121 27.5 10.121 23.435 0 42.5-19.065 42.5-42.5s-19.065-42.5-42.5-42.5zm-70 70c-15.164 0-27.5-12.337-27.5-27.5s12.336-27.5 27.5-27.5 27.5 12.337 27.5 27.5-12.336 27.5-27.5 27.5zm70 0c-15.164 0-27.5-12.337-27.5-27.5s12.336-27.5 27.5-27.5 27.5 12.337 27.5 27.5-12.336 27.5-27.5 27.5z" fill="#65b1cf"/><path d="m312.75 127v180c0 16.569-13.431 30-30 30h-52c-16.569 0-30-13.431-30-30v-180c0-5.523 4.477-10 10-10h92c5.523 0 10 4.477 10 10z" fill="#58aacb"/><path d="m312.75 127v180c0 16.569-13.431 30-30 30h-22c-16.569 0-30-13.431-30-30v-180c0-5.523 4.477-10 10-10h62c5.523 0 10 4.477 10 10z" fill="#7fbed7"/><path d="m292.75 247.667v59.333c0 5.523-4.477 10-10 10h-52c-5.523 0-10-4.477-10-10v-59.333c0-5.523 4.477-10 10-10h52c5.523 0 10 4.477 10 10z" fill="#ff72c3"/><path d="m282.75 317h-32c-5.523 0-10-4.477-10-10v-59.333c0-5.523 4.477-10 10-10h32c5.523 0 10 4.477 10 10v59.333c0 5.523-4.477 10-10 10z" fill="#ff94d2"/><path d="m292.75 147v110h-53c-7.732 0-14-6.268-14-14v-96c0-5.523 4.477-10 10-10h47c5.523 0 10 4.477 10 10z" fill="#ff50b5"/><path d="m240.75 147v110h-20v-110c0-5.523 4.477-10 10-10h20c-5.523 0-10 4.477-10 10z" fill="#ff2ea6"/><path d="m302.75 137c0 5.523-4.477 10-10 10h-72c-5.523 0-10-4.477-10-10s4.477-10 10-10h72c5.523 0 10 4.477 10 10z" fill="#ff94d2"/><path d="m346.75 117c0 5.523-4.477 10-10 10h-160c-5.523 0-10-4.477-10-10s4.477-10 10-10h160c5.523 0 10 4.477 10 10z" fill="#fff5f5"/><path d="m222.053 464.696c2.929 2.93 2.929 7.678 0 10.607-1.464 1.464-3.384 2.196-5.303 2.196s-3.839-.732-5.303-2.196l-55-55c-2.929-2.93-2.929-7.678 0-10.607 2.929-2.928 7.678-2.928 10.606 0zm118.051-91.404c-3.706-1.854-8.21-.351-10.062 3.354l-40 80c-1.853 3.705-.351 8.21 3.354 10.063 1.077.539 2.221.794 3.348.794 2.751 0 5.4-1.52 6.714-4.147l40-80c1.853-3.707.351-8.211-3.354-10.064z" fill="#fff5f5"/><path d="m254.5 230c0 5.523-4.477 10-10 10s-10-4.477-10-10 4.477-10 10-10 10 4.477 10 10zm-10-70c-5.523 0-10 4.477-10 10s4.477 10 10 10 10-4.477 10-10-4.477-10-10-10zm25 20c-8.284 0-15 6.716-15 15s6.716 15 15 15 15-6.716 15-15-6.716-15-15-15z" fill="#ff94d2"/><path d="m284.5 195c0 2.368-.549 4.608-1.526 6.599-1.991.977-4.231 1.526-6.599 1.526-8.284 0-15-6.716-15-15 0-2.368.549-4.608 1.526-6.599 1.991-.977 4.231-1.526 6.599-1.526 8.284 0 15 6.716 15 15z" fill="#ffc7e7"/><path d="m424.229 127c0 4.142-3.358 7.5-7.5 7.5h-5v5c0 4.142-3.358 7.5-7.5 7.5s-7.5-3.358-7.5-7.5v-5h-5c-4.142 0-7.5-3.358-7.5-7.5s3.358-7.5 7.5-7.5h5v-5c0-4.142 3.358-7.5 7.5-7.5s7.5 3.358 7.5 7.5v5h5c4.142 0 7.5 3.358 7.5 7.5zm-317.479 38.75h-5v-5c0-4.142-3.358-7.5-7.5-7.5s-7.5 3.358-7.5 7.5v5h-5c-4.142 0-7.5 3.358-7.5 7.5s3.358 7.5 7.5 7.5h5v5c0 4.142 3.358 7.5 7.5 7.5s7.5-3.358 7.5-7.5v-5h5c4.142 0 7.5-3.358 7.5-7.5s-3.358-7.5-7.5-7.5z" fill="#b9d3fd"/><path d="m377.13 207.5h-5v-5c0-4.142-3.358-7.5-7.5-7.5s-7.5 3.358-7.5 7.5v5h-5c-4.142 0-7.5 3.358-7.5 7.5s3.358 7.5 7.5 7.5h5v5c0 4.142 3.358 7.5 7.5 7.5s7.5-3.358 7.5-7.5v-5h5c4.142 0 7.5-3.358 7.5-7.5s-3.358-7.5-7.5-7.5z" fill="#fff5f5"/></g></svg>