<svg id="Capa_1" enable-background="new 0 0 501 501" height="512" viewBox="0 0 501 501" width="512" xmlns="http://www.w3.org/2000/svg"><g><path d="m495.5 256.185c-.026 35.437-7.576 69.114-21.138 99.519-4.328 9.703-13.982 15.936-24.607 15.936h-365.835c-33.21 0-62.46-22.319-70.725-54.484-5.024-19.549-7.695-40.04-7.695-61.156 0-38.019 8.66-74.015 24.115-106.124l22.855-4.94c70.128-15.157 128.294-63.877 155.514-130.26 13.808-2.416 28.014-3.676 42.513-3.676 135.207-.002 245.103 109.978 245.003 245.185z" fill="#717ed6"/><path d="m286.13 133.13c0 71.133-57.664 128.797-128.797 128.797-65.458 0-119.51-48.83-127.718-112.052 18.931-39.33 48.056-72.828 83.949-97.065 1.099-.742 4.633 3.523 5.745 2.798 14.27-9.303 29.57-17.159 45.691-23.359 1.228-.472.032-5.933 1.269-6.386 13.396-4.905 27.341-8.673 41.716-11.188 45.951 19.676 78.145 65.305 78.145 118.455z" fill="#a6aee5"/><path d="m226.996 145.712c0 20.326-16.477 36.803-36.804 36.803-20.326 0-36.803-16.478-36.803-36.803s16.477-36.803 36.803-36.803c20.326-.001 36.804 16.477 36.804 36.803zm-131.674-36.804c-20.326 0-36.803 16.478-36.803 36.803s16.477 36.803 36.803 36.803 36.804-16.478 36.804-36.803-16.478-36.803-36.804-36.803zm91.474-50.027c0-14.482-8.365-27.011-20.527-33.018-18.694 6.844-36.322 15.901-52.566 26.854-.338 2.004-.514 4.063-.514 6.164 0 20.326 16.477 36.803 36.803 36.803 20.327 0 36.804-16.477 36.804-36.803z" fill="#c0dfeb"/><path d="m115.513 162.324c4.917 0 9.61-.965 13.898-2.715-5.484 13.437-18.68 22.906-34.089 22.906-20.326 0-36.803-16.478-36.803-36.803 0-15.408 9.469-28.605 22.906-34.089-1.75 4.288-2.714 8.98-2.714 13.898-.002 20.325 16.476 36.803 36.802 36.803zm68.569-89.545c-4.288 1.75-8.98 2.715-13.898 2.715-19.643 0-35.692-15.39-36.748-34.769-6.778 3.694-13.362 7.698-19.733 11.993-.338 2.004-.514 4.063-.514 6.164 0 20.326 16.477 36.803 36.803 36.803 15.409-.001 28.606-9.47 34.09-22.906zm26.302 89.545c-20.326 0-36.803-16.478-36.803-36.803 0-4.917.964-9.61 2.714-13.898-13.437 5.484-22.906 18.681-22.906 34.089 0 20.326 16.477 36.803 36.803 36.803 15.409 0 28.605-9.469 34.089-22.906-4.288 1.75-8.98 2.715-13.897 2.715z" fill="#a6d2e3"/><path d="m356.13 271.426v148.426h-140v-107.63c0-38.66 31.34-70 70-70h40.796c16.129 0 29.204 13.075 29.204 29.204z" fill="#c0dfeb"/><path d="m412.072 380h-103.942c-37.433 0-67.778-30.345-67.778-67.778 0-38.66 31.34-70 70-70h94.148c38.66 0 70 31.34 70 70v43.171c-8.56 19.262-19.531 10.907-32.531 17.302-9.339 4.594-19.49 7.305-29.897 7.305z" fill="#ececf1"/><path d="m461.631 380.368c-30.395 51.488-79.088 90.89-137.132 109.258-23.348 7.388-84.148-137.256-84.148-137.256h187.503c13.134 0 25.494 6.799 32.017 18.198 2.16 3.774 3.211 7.343 1.76 9.8z" fill="#c0dfeb"/><path d="m417.981 419.852c-4.459 0-8.074-3.615-8.074-8.074v-96.889c0-4.459 3.615-8.074 8.074-8.074 4.459 0 8.074 3.615 8.074 8.074v96.889c.001 4.459-3.614 8.074-8.074 8.074z" fill="#b9d3fd"/><path d="m426.056 352.37v74.525c-5.151 5.291-10.54 10.35-16.148 15.159v-89.684z" fill="#8cc5db"/><path d="m384.625 390h-30.25c-5.454 0-9.875-4.421-9.875-9.875v-40.25c0-5.454 4.421-9.875 9.875-9.875h30.25c5.454 0 9.875 4.421 9.875 9.875v40.25c0 5.454-4.421 9.875-9.875 9.875z" fill="#8cc5db"/><path d="m394.5 340h-50v-15c0-2.761 2.239-5 5-5h40c2.761 0 5 2.239 5 5z" fill="#c0dfeb"/><path d="m345.315 292.222c-22.541 0-40.815-18.273-40.815-40.815v-9.185h81.63v9.185c0 22.542-18.274 40.815-40.815 40.815z" fill="#c0dfeb"/><path d="m453.13 88.815v9.37c0 49.051-39.764 88.815-88.815 88.815h-38c-49.051 0-88.815-39.764-88.815-88.815v-9.37c0-49.051 39.764-88.815 88.815-88.815h38c49.051 0 88.815 39.764 88.815 88.815z" fill="#c1924d"/><path d="m453.13 88.815v9.37c0 49.051-39.764 88.815-88.815 88.815-49.051 0-88.815-39.764-88.815-88.815v-9.37c0-49.051 39.764-88.815 88.815-88.815 49.051 0 88.815 39.764 88.815 88.815z" fill="#cc9f56"/><path d="m256.5 169.556c-11.148 0-20.185-9.037-20.185-20.185v-8.074c0-11.148 9.037-20.185 20.185-20.185 11.148 0 20.185 9.037 20.185 20.185v8.074c0 11.147-9.037 20.185-20.185 20.185z" fill="#f2bb88"/><path d="m248.426 137.259v16.148c0 6.603 3.171 12.465 8.073 16.148-11.147-.001-20.184-9.038-20.184-20.185v-8.074c0-11.147 9.036-20.184 20.184-20.185-4.902 3.683-8.073 9.545-8.073 16.148zm185.704-16.148v-16.148c0-49.051-39.764-88.815-88.815-88.815-49.051 0-88.815 39.764-88.815 88.815v32.296c0 40.654 27.315 74.928 64.593 85.471v27.566c0 13.377 10.845 24.222 24.222 24.222s24.222-10.845 24.222-24.222v-27.566c27.117-7.67 48.962-27.896 58.856-54.002 1.818.538 3.744.827 5.737.827 11.148 0 20.185-9.037 20.185-20.185v-8.074c0-11.148-9.037-20.185-20.185-20.185z" fill="#e3a76f"/><path d="m434.13 104.963v32.296c0 41.01-27.795 75.528-65.574 85.743-7.285 1.97-14.974 1.97-22.259 0-37.779-10.215-65.574-44.733-65.574-85.743v-32.296c0-44.943 33.382-82.089 76.704-87.996 43.321 5.907 76.703 43.053 76.703 87.996z" fill="#f2bb88"/><path d="m400.877 132.017h-108.965c-19.527 0-35.414-15.886-35.414-35.414 0-7.511 6.11-13.621 13.621-13.621h152.551c7.51 0 13.621 6.11 13.621 13.621 0 19.528-15.887 35.414-35.414 35.414z" fill="#5596fb"/><path d="m280.722 130.205v-25.242c0-7.586.951-14.951 2.741-21.98h139.207c7.51 0 13.621 6.11 13.621 13.621 0 19.527-15.887 35.414-35.414 35.414h-108.965c-3.909-.001-7.671-.638-11.19-1.813z" fill="#97bffd"/><path d="m319.074 111.019c0 6.689-5.422 12.111-12.111 12.111s-12.111-5.422-12.111-12.111 5.422-12.111 12.111-12.111c6.689-.001 12.111 5.422 12.111 12.111zm64.593-12.112c-6.689 0-12.111 5.422-12.111 12.111s5.422 12.111 12.111 12.111 12.111-5.422 12.111-12.111c0-6.688-5.423-12.111-12.111-12.111z" fill="#0a3575"/><path d="m321.093 104.963c0 3.344-2.711 6.056-6.056 6.056-3.344 0-6.056-2.711-6.056-6.056s2.711-6.056 6.056-6.056c3.344 0 6.056 2.712 6.056 6.056zm70.648-6.056c-3.344 0-6.056 2.711-6.056 6.056s2.711 6.056 6.056 6.056c3.344 0 6.056-2.711 6.056-6.056s-2.712-6.056-6.056-6.056z" fill="#fff5f5"/><path d="m345.315 193.778c-13.378 0-24.222-10.845-24.222-24.222 0-3.344 2.711-6.056 6.056-6.056h36.333c3.344 0 6.056 2.711 6.056 6.056-.001 13.377-10.846 24.222-24.223 24.222z" fill="#fff5f5"/><path d="m351.37 193.015c-1.936.498-3.964.763-6.056.763-13.378 0-24.222-10.845-24.222-24.222 0-3.344 2.711-6.056 6.056-6.056h12.111c-3.344 0-6.056 2.711-6.056 6.056.001 11.286 7.72 20.77 18.167 23.459z" fill="#ececf1"/><path d="m263.883 32.296c16.29-19.725 40.933-32.296 68.513-32.296h25.837c4.373 0 8.672.316 12.876.927 35.815 5.201 35.815 57.538 0 62.739-4.204.611-8.503.927-12.876.927h-25.837c-27.58 0-52.223-12.572-68.513-32.297z" fill="#c1924d"/><path d="m363.75 0c34.667 1.25 58.75 19.333 62.997 32.296-16.29 19.725-40.934 32.297-68.514 32.297h-25.837c-13.303 0-25.922-2.925-37.25-8.166 13.835-34.76 44.187-51.927 68.604-56.427z" fill="#cc9f56"/><path d="m324.5 437.37v52.256c-16.017 5.069-32.747 8.536-50 10.213-26.093-69.899-92.856-116.24-167.467-116.24h-65.723c-12.833-20.993-22.594-44.068-28.659-68.599 8.931-13.628 24.339-22.63 41.849-22.63h180c27.614 0 50 22.386 50 50v17.63c0 4.602-.622 9.057-1.786 13.289 24.608 10.851 41.786 35.46 41.786 64.081z" fill="#2b3894"/><path d="m247.048 213.963v107.222c0 49.051-39.764 88.815-88.815 88.815-49.051 0-88.815-39.764-88.815-88.815v-107.222c0-49.051 39.764-88.815 88.815-88.815 49.051 0 88.815 39.764 88.815 88.815z" fill="#fcf2b6"/><path d="m184.041 406.192c-8.167 2.476-16.832 3.808-25.807 3.808h-25.837c-49.051 0-88.815-39.764-88.815-88.815v-107.222c0-49.051 39.764-88.815 88.815-88.815h25.837c8.976 0 17.64 1.332 25.807 3.808-36.465 11.056-63.007 44.932-63.007 85.007v107.222c-.001 40.075 26.542 73.951 63.007 85.007z" fill="#ffde91"/><path d="m56.5 294.704c-11.148 0-20.185-9.037-20.185-20.185v-8.074c0-11.148 9.037-20.185 20.185-20.185 11.148 0 20.185 9.037 20.185 20.185v8.074c0 11.148-9.037 20.185-20.185 20.185z" fill="#f2bb88"/><path d="m48.426 262.407v16.148c0 6.603 3.171 12.465 8.073 16.148-11.147-.001-20.184-9.038-20.184-20.185v-8.074c0-11.147 9.036-20.184 20.184-20.185-4.902 3.683-8.073 9.545-8.073 16.148zm185.704-16.148v-16.148c0-49.051-39.764-88.815-88.815-88.815-49.051 0-88.815 39.764-88.815 88.815v32.296c0 40.654 27.315 74.928 64.593 85.471v51.788h48.444v-51.788c27.117-7.67 48.962-27.897 58.856-54.002 1.818.538 3.744.827 5.737.827 11.148 0 20.185-9.037 20.185-20.185v-8.074c0-11.148-9.037-20.185-20.185-20.185z" fill="#e3a76f"/><path d="m234.13 230.111v32.296c0 41.01-27.795 75.528-65.574 85.743-7.285 1.97-14.974 1.97-22.259 0-37.779-10.215-65.574-44.733-65.574-85.743v-32.296c0-44.943 33.382-82.089 76.704-87.996 43.321 5.907 76.703 43.053 76.703 87.996z" fill="#f2bb88"/><path d="m133.608 267.842c-2.365-2.365-2.365-6.199 0-8.565 2.365-2.364 6.199-2.364 8.564 0 .841.841 1.957 1.305 3.143 1.305s2.302-.464 3.143-1.305c2.365-2.364 6.199-2.364 8.564 0 2.365 2.365 2.365 6.199 0 8.565-3.129 3.129-7.286 4.852-11.707 4.852s-8.578-1.723-11.707-4.852z" fill="#e3a76f"/><path d="m119.074 236.167c0 6.689-5.422 12.111-12.111 12.111s-12.111-5.422-12.111-12.111c0-6.688 5.422-12.111 12.111-12.111s12.111 5.422 12.111 12.111zm64.593-12.111c-6.689 0-12.111 5.422-12.111 12.111s5.422 12.111 12.111 12.111 12.111-5.422 12.111-12.111-5.423-12.111-12.111-12.111z" fill="#0a3575"/><path d="m121.093 230.111c0 3.344-2.711 6.056-6.056 6.056-3.344 0-6.056-2.711-6.056-6.056s2.711-6.056 6.056-6.056c3.344.001 6.056 2.712 6.056 6.056zm70.648-6.055c-3.344 0-6.056 2.711-6.056 6.056s2.711 6.056 6.056 6.056c3.344 0 6.056-2.711 6.056-6.056s-2.712-6.056-6.056-6.056z" fill="#fff5f5"/><path d="m145.315 318.926c-13.378 0-24.222-10.845-24.222-24.222 0-3.344 2.711-6.056 6.056-6.056h36.333c3.344 0 6.056 2.711 6.056 6.056-.001 13.377-10.846 24.222-24.223 24.222z" fill="#fff5f5"/><path d="m151.37 318.163c-1.936.498-3.965.763-6.056.763-13.378 0-24.222-10.845-24.222-24.222 0-3.344 2.711-6.056 6.056-6.056h12.111c-3.344 0-6.056 2.711-6.056 6.056.001 11.286 7.72 20.77 18.167 23.459z" fill="#ececf1"/><path d="m63.883 157.444c16.29-19.725 40.934-32.296 68.514-32.296h25.837c19.012 0 36.628 5.974 51.075 16.146 6.511 4.585-4.755 36.982-19.115 42.523-9.917 3.826-20.693 5.924-31.96 5.924h-25.837c-27.581 0-52.224-12.572-68.514-32.297z" fill="#ffde91"/><path d="m158.233 189.741h-25.837c-13.303 0-25.922-2.925-37.25-8.166 15.856-24.253 43.252-40.278 74.391-40.278h39.773c6.51 4.584 12.376 10.021 17.436 16.148-16.289 19.724-40.933 32.296-68.513 32.296z" fill="#fcf2b6"/><path d="m52.114 399.794c-3.808-5.245-7.414-10.647-10.805-16.195 12.142-10.132 27.769-16.229 44.82-16.229h45.18c-24.651 0-46.326 12.742-58.798 32-4.722 7.293-15.292 7.454-20.397.424z" fill="#ff2ea6"/><path d="m274.5 437.37v62.469c-7.896.768-15.902 1.161-24 1.161-81.855 0-154.334-40.142-198.826-101.814 12.49-19.154 34.105-31.815 58.677-31.815h94.149c38.66-.001 70 31.339 70 69.999z" fill="#ff72c3"/><path d="m116.248 448.074v12.901c-5.543-3.638-10.93-7.495-16.148-11.558v-1.343c0-4.459 3.615-8.074 8.074-8.074s8.074 3.615 8.074 8.074zm101.734-16.111c-4.459 0-8.074 3.615-8.074 8.074v57.615c5.327.888 10.711 1.604 16.148 2.143v-59.759c0-4.458-3.615-8.073-8.074-8.073zm-72.667-8.074c-4.459 0-8.074 3.615-8.074 8.074v41.343c5.273 2.754 10.659 5.322 16.148 7.694v-49.037c0-4.459-3.615-8.074-8.074-8.074zm35.526 40.37c-4.459 0-8.074 3.615-8.074 8.074v16.078c5.304 1.773 10.689 3.37 16.148 4.783v-20.861c0-4.459-3.615-8.074-8.074-8.074z" fill="#ff2ea6"/><path d="m414.5 70h-140c-15.164 0-27.5 12.337-27.5 27.5 0 26.191 21.309 47.5 47.5 47.5h100c26.191 0 47.5-21.309 47.5-47.5 0-15.163-12.336-27.5-27.5-27.5zm-20 60h-100c-17.92 0-32.5-14.579-32.5-32.5 0-6.893 5.607-12.5 12.5-12.5h140c6.893 0 12.5 5.607 12.5 12.5 0 17.921-14.58 32.5-32.5 32.5z" fill="#fff5f5"/><path d="m414.5 70h-140c-15.164 0-27.5 12.337-27.5 27.5 0 26.191 21.309 47.5 47.5 47.5h100c26.191 0 47.5-21.309 47.5-47.5 0-15.163-12.336-27.5-27.5-27.5zm-20 60h-100c-17.92 0-32.5-14.579-32.5-32.5 0-6.893 5.607-12.5 12.5-12.5h140c6.893 0 12.5 5.607 12.5 12.5 0 17.921-14.58 32.5-32.5 32.5z" fill="#ececf1"/><path d="m394.5 145h-100c-4.722 0-9.285-.693-13.594-1.982-.122-1.904-.184-3.824-.184-5.759v-10.327c4.186 1.968 8.856 3.068 13.778 3.068h100c17.92 0 32.5-14.579 32.5-32.5 0-6.893-5.607-12.5-12.5-12.5h-131.525c1.192-5.188 2.838-10.203 4.894-15h126.631c15.164 0 27.5 12.337 27.5 27.5 0 26.191-21.309 47.5-47.5 47.5z" fill="#fff5f5"/><path d="m333.608 147.694c-2.365-2.365-2.365-6.199 0-8.564 2.365-2.364 6.199-2.364 8.564 0 .841.841 1.957 1.305 3.143 1.305s2.302-.464 3.143-1.305c2.365-2.364 6.199-2.364 8.564 0 2.365 2.365 2.365 6.199 0 8.564-3.129 3.129-7.286 4.852-11.707 4.852s-8.578-1.723-11.707-4.852z" fill="#e3a76f"/><path d="m253.213 343.713c-11.716 11.716-30.711 11.716-42.426 0-11.716-11.716-11.716-30.711 0-42.426 11.716-11.716 30.711-11.716 42.426 0 11.716 11.715 11.716 30.711 0 42.426z" fill="#5766ce"/><path d="m243.333 300.457v46.376c-1.861.813-3.839 1.409-5.902 1.755v-49.885c2.063.345 4.041.94 5.902 1.754zm-24.871 43.733c3.617 2.602 7.95 4.273 12.646 4.66v-50.411c-4.696.388-9.029 2.058-12.646 4.66z" fill="#717ed6"/><path d="m323.684 408.467-62.475-62.475c5.184-6.433 8.29-14.607 8.29-23.492 0-20.678-16.822-37.5-37.5-37.5s-37.5 16.822-37.5 37.5 16.823 37.5 37.501 37.5c6.359 0 12.354-1.592 17.607-4.397l63.471 63.471c2.812 2.812 7.371 2.812 10.183 0l.424-.424c2.811-2.812 2.811-7.371-.001-10.183zm-114.184-85.967c0-12.406 10.093-22.5 22.5-22.5s22.5 10.094 22.5 22.5-10.093 22.5-22.5 22.5-22.5-10.094-22.5-22.5z" fill="#b9d3fd"/><path d="m342.927 438.316c-4.624 4.624-12.12 4.624-16.744 0l-51.899-51.899c-4.624-4.624-4.624-12.12 0-16.744s12.12-4.624 16.744 0l51.899 51.899c4.623 4.624 4.623 12.121 0 16.744z" fill="#ececf1"/><path d="m425.34 394.563-111.755 43.712c-12.859 5.03-27.36-1.317-32.389-14.176-4.484-11.463.074-24.231 10.225-30.431-1.192-1.21-1.982-2.828-2.131-4.653-.336-4.129 2.739-7.747 6.868-8.083l33.793-2.748 77.175-30.187c12.858-5.03 27.36 1.317 32.389 14.176 5.03 12.86-1.316 27.361-14.175 32.39z" fill="#f2bb88"/><path d="m439.491 362.111c.008.021.017.042.025.063 5.03 12.858-1.317 27.36-14.176 32.389l-111.755 43.712c-12.858 5.03-27.36-1.317-32.389-14.176-.008-.021-.016-.042-.024-.063 5.034 1.401 10.548 1.241 15.79-.809l130.381-50.998c5.24-2.049 9.399-5.673 12.148-10.118z" fill="#e3a76f"/><path d="m461.632 380.368-78.2 30.587-18.213-46.565 109.281-42.744v33.747c-3.82 8.597-8.121 16.933-12.868 24.975z" fill="#fff5f5"/><path d="m461.632 380.368-78.2 30.587-7.285-18.626 98.354-38.47v1.534c-3.821 8.597-8.122 16.933-12.869 24.975z" fill="#ececf1"/><path d="m389.377 419.293c-3.858 1.509-8.208-.395-9.717-4.253l-20.035-51.221c-1.509-3.858.395-8.208 4.253-9.717 3.858-1.509 8.208.395 9.717 4.253l20.035 51.221c1.509 3.857-.395 8.208-4.253 9.717z" fill="#ececf1"/><path d="m473.13 210c0 4.142-3.358 7.5-7.5 7.5h-5v5c0 4.142-3.358 7.5-7.5 7.5s-7.5-3.358-7.5-7.5v-5h-5c-4.142 0-7.5-3.358-7.5-7.5s3.358-7.5 7.5-7.5h5v-5c0-4.142 3.358-7.5 7.5-7.5s7.5 3.358 7.5 7.5v5h5c4.142 0 7.5 3.358 7.5 7.5zm-268.889-147.5h-5v-5c0-4.142-3.358-7.5-7.5-7.5s-7.5 3.358-7.5 7.5v5h-5c-4.142 0-7.5 3.358-7.5 7.5s3.358 7.5 7.5 7.5h5v5c0 4.142 3.358 7.5 7.5 7.5s7.5-3.358 7.5-7.5v-5h5c4.142 0 7.5-3.358 7.5-7.5s-3.358-7.5-7.5-7.5z" fill="#fff5f5"/></g></svg>