<svg id="Capa_1" enable-background="new 0 0 512 512" height="512" viewBox="0 0 512 512" width="512" xmlns="http://www.w3.org/2000/svg"><g><path d="m501 256c0 135.31-109.69 245-245 245s-245-109.69-245-245 109.69-245 245-245 245 109.69 245 245z" fill="#5766ce"/><path d="m315 346.98c-99.135 0-179.5-72.745-179.5-162.48s80.365-162.48 179.5-162.48c5.342 0 10.63.212 15.854.625 80.439 25.782 142.777 92.002 163.09 174.737-7.255 83.714-84.599 149.598-178.944 149.598z" fill="#717ed6"/><path d="m317 462.693c0 6.259-27.311 11.333-61 11.333s-61-5.074-61-11.333 27.311-11.333 61-11.333 61 5.074 61 11.333z" fill="#3342ae"/><path d="m511.938 255.39c0 .001 0 .001 0 0-.722 8.246-7.505 14.768-20.688 19.846-3.557 1.37-7.573-.215-9.273-3.627-.029-.059-.059-.118-.088-.177-1.964-3.93-.065-8.672 4.041-10.236 8.308-3.165 10.965-5.967 11.065-7.114.218-2.493-10.096-14.777-64.539-29.326-45.801-12.24-107.343-22.157-173.291-27.927-38.822-3.397-76.392-5.112-110.365-5.112-23.736 0-45.717.837-65.144 2.524-56.143 4.875-68.433 15.181-68.651 17.675-.067.765.858 2.453 3.747 4.845 5.395 4.468 2.244 13.239-4.761 13.239-1.731 0-3.425-.586-4.751-1.699-6.703-5.626-9.722-11.475-9.178-17.691.816-9.331 9.394-16.454 26.222-21.776 13.492-4.267 32.359-7.475 56.075-9.534 48.072-4.174 111.326-3.254 178.113 2.588 66.788 5.844 129.241 15.921 175.856 28.379 22.998 6.146 41.021 12.581 53.568 19.126 15.648 8.163 22.858 16.667 22.042 25.997z" fill="#bc157d"/><path d="m409.464 245.116-66.684 175.044c-5.616 14.743-23.472 20.451-36.598 11.699-5.943-3.962-9.868-10.313-10.754-17.4l-6.368-50.948s-.79-25.757-11.077-45.554c-9.338-17.97-34.99-18.155-43.963 0-8.344 16.882-10.895 44.093-10.895 44.093l-6.551 52.409c-.886 7.087-4.811 13.438-10.754 17.4-13.127 8.751-30.982 3.043-36.598-11.699l-66.684-175.045c-10.193-26.756-11.935-55.995-4.99-83.772l13.212-52.847c6.169-24.676 30.967-39.864 55.752-34.144l24.783 5.719c9.589 2.213 19.603 1.216 28.664-2.623 23.443-9.932 48.643-9.932 72.086 0 9.062 3.839 19.075 4.836 28.664 2.623l24.783-5.719c24.784-5.719 49.583 9.468 55.752 34.144l13.212 52.847c6.942 27.778 5.2 57.016-4.992 83.773z" fill="#ececf1"/><path d="m209.533 420.16c.736 1.933 1.684 3.711 2.803 5.321-1.736 2.486-3.936 4.658-6.517 6.378-13.127 8.751-30.982 3.043-36.599-11.699l-66.684-175.045c-10.193-26.756-11.935-55.995-4.99-83.772l13.212-52.847c6.169-24.676 30.967-39.864 55.752-34.144l11.344 2.618c-12.893 5.572-23.121 16.877-26.783 31.526l-13.212 52.847c-6.944 27.777-5.202 57.016 4.99 83.772zm116.997-5.7-6.368-50.948s-.79-25.757-11.077-45.554c-6.155-11.844-35.626-16.932-52.845-13.543 8.577.151 17.141 4.688 21.742 13.543 10.288 19.798 11.077 45.554 11.077 45.554l6.368 50.948c.886 7.087 4.811 13.438 10.754 17.4 9.38 6.253 21.173 5.124 29.192-1.41l.002-.001c-4.871-3.975-8.058-9.692-8.845-15.989z" fill="#d3d3d8"/><path d="m332.591 247.557c-14.228-12.768-.306-33.319-5.579-72.176-3.535-26.049-11.98-33.278-5.929-44.03 7.246-12.875 29.038-19.03 43.544-12.441 27.746 12.603 20.231 67.03 19.439 72.314-4.018 26.814-19.844 61.728-38.645 61.776-6.611.017-11.536-4.281-12.83-5.443z" fill="#fff5f5"/><path d="m50.003 237.393v.024c0 5.241-5.251 8.885-10.149 7.018-6.78-2.583-12.707-5.196-17.75-7.827-15.648-8.164-22.858-16.668-22.042-25.999.361-4.127 4.006-7.175 8.125-6.818 4.126.361 7.179 3.999 6.818 8.125-.161 1.838 5.404 8.999 30.156 18.464 2.91 1.114 4.842 3.898 4.842 7.013zm455.117 9.873c-4.136-.355-7.764 2.691-8.125 6.818-.218 2.494-12.509 12.8-68.651 17.675-47.232 4.099-109.561 3.182-175.508-2.588-8.265-.723-16.46-1.511-24.565-2.361-4.424-.464-8.27 3.009-8.27 7.457 0 3.833 2.887 7.059 6.699 7.459 8.193.859 16.477 1.656 24.828 2.387 39.235 3.433 77.245 5.166 111.679 5.166 24.181 0 46.603-.855 66.434-2.577 23.716-2.059 42.583-5.267 56.075-9.534 16.828-5.322 25.406-12.445 26.221-21.776.362-4.128-2.69-7.765-6.817-8.126z" fill="#ff50b5"/><path d="m198.066 276.892-58.486 51.665c-2.178 1.924-5.449 1.924-7.627 0l-58.486-51.665c-16.148-14.265-18.032-38.783-4.253-55.348 14.994-18.025 42.233-19.272 58.811-2.694l3.668 3.668c2.25 2.25 5.897 2.25 8.146 0l3.668-3.668c16.579-16.579 43.817-15.331 58.811 2.694 13.78 16.565 11.896 41.082-4.252 55.348z" fill="#ff50b5"/><path d="m236.309 185.444-16.03 14.161c-.597.527-1.493.527-2.091 0l-16.03-14.161c-4.426-3.91-4.942-10.63-1.166-15.17 4.11-4.94 11.575-5.282 16.119-.738l1.005 1.005c.617.617 1.616.617 2.233 0l1.005-1.005c4.544-4.544 12.01-4.202 16.119.738 3.778 4.54 3.262 11.26-1.164 15.17z" fill="#ff94d2"/><path d="m197.842 129.107-16.03 14.161c-.597.527-1.493.527-2.09 0l-16.03-14.161c-4.426-3.91-4.942-10.63-1.166-15.17 4.11-4.94 11.575-5.282 16.119-.738l1.005 1.005c.617.617 1.616.617 2.233 0l1.005-1.005c4.544-4.544 12.01-4.202 16.119.738 3.777 4.541 3.261 11.26-1.165 15.17z" fill="#ffaee0"/><path d="m155.66 314.352-16.08 14.205c-2.178 1.924-5.449 1.924-7.627 0l-58.486-51.665c-16.148-14.265-18.032-38.783-4.253-55.348 8.385-10.079 20.598-14.912 32.635-14.315-1.472 1.312-2.866 2.75-4.168 4.315-13.779 16.565-11.895 41.082 4.253 55.348z" fill="#ff2ea6"/></g></svg>