<svg id="Capa_1" enable-background="new 0 0 501 501" height="512" viewBox="0 0 501 501" width="512" xmlns="http://www.w3.org/2000/svg"><g><path d="m38.616 202c-15.643 0-26.68-15.194-22.017-30.126 31.104-99.592 124.061-171.874 233.901-171.874 108.754 0 200.958 70.86 232.96 168.929 5.328 16.326-6.996 33.071-24.169 33.071z" fill="#3d4ec6"/><path d="m11.95 243c-5.225-13.716-6.118-28.705-2.558-42.944l6.773-27.091c3.162-12.649 15.875-20.435 28.58-17.503l12.704 2.932c4.916 1.134 10.049.624 14.694-1.345 12.017-5.091 24.936-5.091 36.953 0 4.645 1.968 9.778 2.479 14.694 1.345l12.704-2.932c12.705-2.932 25.417 4.854 28.58 17.503l5.485 21.94 5.485-21.94c3.163-12.649 15.875-20.435 28.58-17.503l12.704 2.932c4.916 1.134 10.049.624 14.694-1.345 12.018-5.091 24.936-5.091 36.953 0 4.645 1.968 9.779 2.479 14.694 1.345l12.704-2.932c12.705-2.932 25.417 4.854 28.58 17.503l5.485 21.94 5.485-21.94c3.163-12.649 15.875-20.435 28.58-17.503l12.705 2.932c4.916 1.134 10.049.624 14.694-1.345 12.017-5.091 24.936-5.091 36.953 0 4.645 1.968 9.778 2.479 14.694 1.345l12.705-2.932c12.705-2.932 25.417 4.854 28.58 17.503l6.773 27.091c3.56 14.239 2.667 29.228-2.558 42.944l-28 73.5h-101.339l-28-73.5c-.457-1.199-.88-2.409-1.271-3.626-.391 1.217-.814 2.427-1.271 3.626l-28 73.5h-101.338l-28-73.5c-.457-1.199-.88-2.409-1.271-3.626-.391 1.217-.813 2.427-1.271 3.626l-28 73.5h-101.338z" fill="#ececf1"/><path d="m216.926 58c0 4.142-3.358 7.5-7.5 7.5h-5v5c0 4.142-3.358 7.5-7.5 7.5-4.142 0-7.5-3.358-7.5-7.5v-5h-5c-4.142 0-7.5-3.358-7.5-7.5s3.358-7.5 7.5-7.5h5v-5c0-4.142 3.358-7.5 7.5-7.5 4.142 0 7.5 3.358 7.5 7.5v5h5c4.142 0 7.5 3.358 7.5 7.5zm212.5 12.5h-5v-5c0-4.142-3.358-7.5-7.5-7.5-4.142 0-7.5 3.358-7.5 7.5v5h-5c-4.142 0-7.5 3.358-7.5 7.5s3.358 7.5 7.5 7.5h5v5c0 4.142 3.358 7.5 7.5 7.5 4.142 0 7.5-3.358 7.5-7.5v-5h5c4.142 0 7.5-3.358 7.5-7.5s-3.358-7.5-7.5-7.5z" fill="#7fbed7"/><path d="m331.711 243c-5.225-13.716-6.118-28.705-2.558-42.944l6.773-27.091c3.162-12.649 15.875-20.435 28.58-17.503l5.815 1.342c-28.321 43.946 11.007 162.196 11.007 162.196h-20.665zm-290.808 76 73.597-20s-22.911-16.757-40-40c-22.519-30.628-29.5-49.5-23.94-102.195l-5.815-1.342c-12.705-2.932-25.417 4.854-28.58 17.503l-6.773 27.091c-3.56 14.239-2.667 29.228 2.558 42.943zm159.88 0h20.666s-34.448-117-11.008-162.195l-5.815-1.342c-12.705-2.932-25.417 4.854-28.58 17.503l-6.772 27.091c-3.56 14.239-2.667 29.228 2.558 42.944z" fill="#d3d3d8"/><path d="m279.762 244.252c-7.294-6.545-.157-17.08-2.86-36.999-1.812-13.354-6.141-17.059-3.039-22.571 3.715-6.6 14.886-9.755 22.322-6.378 14.223 6.461 10.371 34.361 9.965 37.07-2.06 13.745-10.173 31.643-19.811 31.668-3.388.009-5.913-2.194-6.577-2.79zm-154.88 0c-7.294-6.545-.157-17.08-2.86-36.999-1.812-13.354-6.141-17.059-3.039-22.571 3.715-6.6 14.886-9.755 22.322-6.378 14.223 6.461 10.371 34.361 9.965 37.07-2.06 13.745-10.173 31.643-19.811 31.668-3.388.009-5.913-2.194-6.577-2.79zm314.76 0c-7.294-6.545-.157-17.08-2.86-36.999-1.812-13.354-6.141-17.059-3.039-22.571 3.715-6.6 14.886-9.755 22.322-6.378 14.223 6.461 10.371 34.361 9.965 37.07-2.06 13.745-10.173 31.643-19.811 31.668-3.388.009-5.913-2.194-6.577-2.79z" fill="#fff5f5"/><path d="m493.871 216.601c1.076 9.317 1.629 18.794 1.629 28.399 0 135.182-109.484 244.793-244.618 245-133.385.203-243.039-107.301-245.345-240.666-.192-11.087.354-22.008 1.59-32.72.502-4.349 4.219-7.614 8.597-7.614h1.122c4.779 0 8.654 3.874 8.654 8.654v24.039c0 30.376 24.624 55 55 55h28.462c30.376 0 55-24.624 55-55v-24.039c0-4.779 3.874-8.654 8.654-8.654 4.779 0 8.654 3.874 8.654 8.654v24.039c0 30.376 24.624 55 55 55h28.462c30.376 0 55-24.624 55-55v-24.039c0-4.779 3.874-8.654 8.654-8.654 4.779 0 8.654 3.874 8.654 8.654v24.039c0 30.376 24.624 55 55 55h28.46c30.376 0 55-24.624 55-55v-24.039c0-4.779 3.874-8.654 8.654-8.654h1.126c4.372 0 8.09 3.257 8.591 7.601z" fill="#f2bb88"/><path d="m300.103 484.976c-15.899 3.27-32.36 4.999-49.221 5.024-133.385.204-243.04-107.3-245.345-240.666-.192-11.087.354-22.009 1.589-32.72.502-4.349 4.219-7.614 8.597-7.614h1.122c4.779 0 8.654 3.875 8.654 8.654v24.039c0 30.375 24.625 55 55 55h28.462c.343 0 .685-.003 1.027-.01 20.398 94.486 95.56 168.792 190.115 188.293z" fill="#e3a76f"/><path d="m469.5 406c0 52.467-42.533 95-95 95s-95-42.533-95-95 42.533-95 95-95 95 42.533 95 95z" fill="#93e2c6"/><path d="m439.5 406c0 35.898-29.101 65-65 65s-65-29.102-65-65 29.102-65 65-65 65 29.102 65 65z" fill="#199a8e"/><path d="m429.9 440.015c-11.438 18.59-31.972 30.985-55.4 30.985-35.898 0-65-29.102-65-65 0-23.428 12.395-43.961 30.985-55.4-6.088 9.895-9.6 21.544-9.6 34.015 0 35.898 29.102 65 65 65 12.47 0 24.12-3.512 34.015-9.6z" fill="#168c80"/><path d="m421.36 362.477-43.75 70c-1.311 2.097-3.571 3.413-6.042 3.518-.106.004-.213.007-.319.007-2.354 0-4.58-1.107-6-3l-26.25-35c-2.485-3.314-1.814-8.015 1.5-10.5 3.315-2.485 8.016-1.813 10.5 1.5l19.687 26.25 37.953-60.725c2.195-3.512 6.822-4.581 10.335-2.385 3.514 2.195 4.581 6.822 2.386 10.335z" fill="#fff5f5"/><path d="m154.5 89c0 4.142-3.358 7.5-7.5 7.5h-5v5c0 4.142-3.358 7.5-7.5 7.5-4.142 0-7.5-3.358-7.5-7.5v-5h-5c-4.142 0-7.5-3.358-7.5-7.5s3.358-7.5 7.5-7.5h5v-5c0-4.142 3.358-7.5 7.5-7.5 4.142 0 7.5 3.358 7.5 7.5v5h5c4.142 0 7.5 3.358 7.5 7.5zm135 15h-5v-5c0-4.142-3.358-7.5-7.5-7.5-4.142 0-7.5 3.358-7.5 7.5v5h-5c-4.142 0-7.5 3.358-7.5 7.5s3.358 7.5 7.5 7.5h5v5c0 4.142 3.358 7.5 7.5 7.5 4.142 0 7.5-3.358 7.5-7.5v-5h5c4.142 0 7.5-3.358 7.5-7.5s-3.358-7.5-7.5-7.5z" fill="#c0dfeb"/><path d="m63.477 124.251c-11.973-11.974-15.887-28.034-10.111-38.396 10.362-5.776 26.422-1.862 38.396 10.111 11.973 11.973 15.887 28.033 10.111 38.396-10.362 5.776-26.422 1.862-38.396-10.111zm36.098 153.946c-14.245 0-26.502 6.079-31.965 14.803 2.412-10.06-1.947-23.131-12.088-33.272-11.973-11.973-28.033-15.887-38.396-10.111-5.776 10.362-1.862 26.422 10.111 38.396 11.848 11.848 27.697 15.804 38.068 10.289 3.299 11.359 17.388 19.896 34.269 19.896 16.933 0 31.057-8.589 34.3-20-3.242-11.412-17.366-20.001-34.299-20.001zm272.298-248.581c-10.362-5.776-26.422-1.862-38.396 10.111-11.973 11.973-15.887 28.033-10.111 38.396 10.362 5.776 26.422 1.862 38.396-10.111s15.887-28.034 10.111-38.396zm-161.391 308.013c-8.076 8.689-8.098 25.22.682 39.699 8.779 14.479 23.446 22.104 34.885 18.96 8.076-8.689 8.098-25.22-.681-39.699s-23.447-22.103-34.886-18.96zm33.378-74.657c-8.689-8.076-25.22-8.098-39.699.681s-22.103 23.446-18.96 34.885c8.689 8.077 25.22 8.098 39.699-.681s22.103-23.446 18.96-34.885z" fill="#20b7a1"/><path d="m80.2 121.175c-8.605-8.604-13.96-17.604-13.187-21.673 4.068-.772 13.068 4.583 21.672 13.188 8.605 8.605 13.96 17.604 13.188 21.673-4.069.772-13.068-4.584-21.673-13.188zm278.026-77.912c-4.069-.773-13.068 4.583-21.673 13.188-8.605 8.604-13.96 17.604-13.188 21.672 4.069.773 13.068-4.583 21.673-13.188 8.605-8.604 13.961-17.603 13.188-21.672zm-130.869 229.715c-3.768-1.719-13.783 1.34-24.189 7.649-10.406 6.31-17.749 13.775-17.967 17.911 3.768 1.719 13.783-1.34 24.189-7.65 10.405-6.308 17.749-13.774 17.967-17.91zm-16.875 64.651c-1.719 3.768 1.341 13.783 7.65 24.189 6.309 10.405 13.775 17.749 17.911 17.967 1.719-3.768-1.34-13.783-7.65-24.188-6.309-10.406-13.775-17.749-17.911-17.968zm-120.557-45.432c-11.549 0-21.28 2.321-24.233 5.484.338-4.252-4.94-12.925-13.246-21.23-8.605-8.605-17.604-13.96-21.673-13.188-.773 4.068 4.583 13.068 13.188 21.672 8.372 8.372 17.117 13.668 21.332 13.237-.006.008-.012.016-.017.024 2.331 3.423 12.481 6 24.65 6s22.319-2.577 24.65-6c-2.331-3.423-12.482-5.999-24.651-5.999z" fill="#199a8e"/></g></svg>