<svg id="Capa_1" enable-background="new 0 0 501 501" height="512" viewBox="0 0 501 501" width="512" xmlns="http://www.w3.org/2000/svg"><g><path d="m501 250.5c0 135.31-109.69 245-245 245s-245-109.69-245-245 109.69-245 245-245 245 109.69 245 245z" fill="#5766ce"/><path d="m489.626 324.5c-31.374 99.141-124.108 171-233.626 171s-202.252-71.859-233.626-171z" fill="#3342ae"/><path d="m437.873 357.711c2.201 2.071 3.079 5.182 2.139 8.054l-.012.037c-2.236 6.817-4.878 13.319-7.862 19.454-5.442 11.19-20.652 13.421-28.994 4.188-11.583-12.82-19.016-32.667-19.016-54.944 0-31.493 14.855-58.129 35.291-66.922 7.789-3.351 16.786.375 20.129 8.168.806 1.879 1.556 3.814 2.247 5.8 1.063 3.053.056 6.444-2.462 8.472-5.691 4.582-9.333 11.607-9.333 19.482 0 4.181 1.026 8.122 2.841 11.585 1.115 2.129 1.115 4.702 0 6.83-1.814 3.463-2.841 7.404-2.841 11.585 0 7.179 3.026 13.652 7.873 18.211z" fill="#fcf2b6"/><path d="m316.096 215.616-66.683 175.044c-5.616 14.743-23.472 20.451-36.598 11.699-5.943-3.962-9.868-10.313-10.754-17.4l-6.368-50.948s-.79-25.757-11.077-45.554c-9.338-17.97-34.99-18.155-43.963 0-8.344 16.882-10.895 44.093-10.895 44.093l-6.551 52.409c-.886 7.087-4.811 13.438-10.754 17.4-13.127 8.751-30.982 3.043-36.598-11.699l-66.686-175.044c-10.193-26.756-11.935-55.995-4.99-83.772l13.212-52.847c6.169-24.677 30.967-39.864 55.752-34.145l24.783 5.719c9.589 2.213 19.603 1.216 28.664-2.623 23.443-9.932 48.643-9.932 72.086 0 9.062 3.839 19.075 4.836 28.664 2.623l24.783-5.719c24.784-5.719 49.583 9.468 55.752 34.144l13.212 52.847c6.944 27.778 5.202 57.016-4.991 83.773z" fill="#ececf1"/><path d="m242.007 400.949-.002.001c-8.018 6.533-19.812 7.663-29.191 1.41-5.943-3.962-9.868-10.313-10.754-17.4l-6.368-50.948s-.79-25.757-11.077-45.554c-4.602-8.856-13.165-13.392-21.742-13.543 17.219-3.388 46.69 1.699 52.845 13.543 10.288 19.797 11.077 45.554 11.077 45.554l6.368 50.948c.787 6.297 3.974 12.014 8.844 15.989zm-192.525-185.333c-10.193-26.756-11.935-55.995-4.99-83.772l13.212-52.847c3.662-14.649 13.89-25.954 26.783-31.526l-11.344-2.618c-24.784-5.72-49.583 9.468-55.752 34.144l-13.212 52.847c-6.944 27.777-5.202 57.016 4.99 83.772l66.684 175.044c5.616 14.743 23.472 20.451 36.598 11.699 2.581-1.721 4.781-3.892 6.517-6.379-1.119-1.61-2.066-3.388-2.803-5.321z" fill="#d3d3d8"/><path d="m239.223 218.057c-14.228-12.768-.306-33.319-5.579-72.176-3.535-26.049-11.98-33.278-5.929-44.03 7.246-12.875 29.038-19.03 43.544-12.441 27.746 12.603 20.231 67.03 19.439 72.314-4.018 26.814-19.844 61.728-38.645 61.776-6.61.017-11.535-4.281-12.83-5.443z" fill="#fff5f5"/><path d="m401.938 210.554c-1.123.61-2.239 1.195-3.347 1.755-50.824 25.708-91.508-49.197-42.274-77.834 1.073-.624 2.171-1.241 3.294-1.852 33.148-18.004 61.362-6.554 98.038-7.42 3.646-.086 5.806 4.014 3.711 6.999-18.891 26.906-26.614 60.532-59.422 78.352z" fill="#24d3b5"/><path d="m391.596 167.924c-27.663 14.434-49.091 38.438-60.365 67.611 6.781 14.707 10.397 31.496 10.397 48.965 0 4.142-3.358 7.5-7.5 7.5s-7.5-3.358-7.5-7.5c0-45.491-28.038-82.5-62.5-82.5-4.142 0-7.5-3.358-7.5-7.5s3.358-7.5 7.5-7.5c21.078 0 40.764 10.385 55.429 29.241.801 1.03 1.582 2.079 2.342 3.146 13.387-27.715 35.326-50.449 62.756-64.762 3.671-1.917 8.202-.493 10.119 3.18 1.917 3.672.494 8.202-3.178 10.119z" fill="#126e66"/><path d="m432.878 383.712c-20.261 42.905-57.144 68.407-89.112 58.75-3.371-1.018-6.571-2.393-9.591-4.091-2.015-1.133-4.493-1.133-6.507 0-3.02 1.699-6.22 3.073-9.591 4.091-37.008 11.179-80.603-24.76-97.372-80.273s-.361-109.577 36.647-120.756c12.718-3.842 26.214-2.119 39.132 4.051 21.796 10.41 47.08 10.41 68.876 0 12.918-6.17 26.414-7.893 39.132-4.051 15.9 4.803 27.998 17.522 35.295 34.871-9.179 3.701-15.657 12.691-15.657 23.195v.055c.003 3.045-1.888 5.712-4.695 6.894-8.992 3.786-15.305 12.681-15.305 23.051 0 5.776 1.959 11.094 5.249 15.327 3.113 4.005 4.907 8.875 4.762 13.945-.007.242-.01.484-.01.727-.003 11.651 7.965 21.439 18.747 24.214z" fill="#ff50b5"/><path d="m326.312 439.105c-2.617 1.364-5.365 2.49-8.236 3.357-37.008 11.179-80.603-24.76-97.372-80.273s-.361-109.577 36.647-120.756c12.228-3.694 25.174-2.243 37.635 3.358-31.118 16.22-43.878 66.193-28.41 117.398 11.228 37.171 34.484 65.566 59.736 76.916z" fill="#ff2ea6"/></g></svg>