<svg id="Capa_1" enable-background="new 0 0 501 501" height="512" viewBox="0 0 501 501" width="512" xmlns="http://www.w3.org/2000/svg"><g><path d="m50 398.846c-31.372-41.176-50-92.586-50-148.346 0-135.31 109.69-245 245-245s245 109.69 245 245c0 55.76-18.628 107.17-50 148.346z" fill="#ff50b5"/><path d="m177.182 365.98-44.934 6.768c-8.192 1.234-15.833-4.407-17.067-12.598l-37.237-247.211c-1.234-8.192 4.407-15.833 12.598-17.067l44.934-6.768c8.192-1.234 15.833 4.407 17.067 12.598l37.237 247.211c1.234 8.192-4.406 15.834-12.598 17.067z" fill="#8c96dd"/><path d="m488.232 319.128-313.009 47.148c-8.192 1.234-15.833-4.407-17.067-12.598l-37.236-247.212c-1.234-8.192 4.407-15.833 12.598-17.067l313.009-47.148c8.192-1.234 15.833 4.407 17.067 12.598l37.237 247.211c1.234 8.193-4.407 15.834-12.599 17.068z" fill="#a6aee5"/><path d="m465.965 292.144-320.386 48.259c-2.731.411-5.278-1.469-5.689-4.199l-31.279-207.658c-.411-2.731 1.469-5.278 4.199-5.689l320.386-48.259c2.731-.411 5.278 1.469 5.689 4.199l31.279 207.658c.411 2.73-1.469 5.277-4.199 5.689z" fill="#2b3894"/><path d="m277.838 163.681c3.688 8.859 4.571 18.636 2.528 28.012l-13.362 61.341c-1.125 5.166-6.758 7.949-11.545 5.704-2.167-1.016-3.785-2.925-4.433-5.23l-4.654-16.567s-1.547-8.497-5.945-14.544c-3.992-5.49-12.502-4.27-14.57 2.195-1.922 6.011-1.409 15.157-1.409 15.157l.445 17.696c.06 2.393-.924 4.694-2.695 6.304-3.914 3.556-10.116 2.555-12.713-2.05l-30.838-54.683c-4.714-8.359-6.751-17.962-5.836-27.514l1.74-18.174c.813-8.486 8.273-14.757 16.772-14.099l8.499.658c3.288.255 6.557-.576 9.369-2.3 7.273-4.462 15.625-5.72 23.89-3.599 3.195.82 6.563.651 9.631-.562l7.928-3.133c7.928-3.133 16.905.663 20.181 8.533zm111.645-34.728c-3.276-7.87-12.253-11.666-20.181-8.533l-7.928 3.133c-3.068 1.212-6.436 1.382-9.631.562-8.265-2.121-16.617-.863-23.89 3.599-2.812 1.725-6.08 2.555-9.369 2.3l-8.499-.658c-8.499-.658-15.96 5.613-16.772 14.099l-1.74 18.174c-.915 9.552 1.122 19.156 5.836 27.514l30.838 54.683c2.597 4.606 8.8 5.606 12.713 2.051 1.772-1.61 2.756-3.911 2.695-6.303l-.445-17.696s-.513-9.145 1.41-15.157c2.067-6.465 10.578-7.684 14.57-2.195 4.398 6.048 5.945 14.544 5.945 14.544l4.654 16.567c.647 2.305 2.265 4.214 4.433 5.23 4.787 2.245 10.42-.538 11.545-5.704l13.362-61.341c2.042-9.376 1.16-19.153-2.528-28.012zm-238.813 35.971c-3.276-7.87-12.253-11.665-20.181-8.533-3.065 1.211-4.889 4.377-4.398 7.636l16.934 112.425c1.872-1.115 3.316-2.971 3.828-5.32l13.362-61.342c2.042-9.376 1.16-19.153-2.528-28.011zm275.511-53.072c-8.499-.658-15.96 5.613-16.772 14.099l-1.74 18.174c-.915 9.552 1.122 19.156 5.836 27.514l30.838 54.683c1.181 2.094 3.107 3.443 5.225 3.957l-16.934-112.424c-.492-3.259-3.167-5.748-6.453-6.003z" fill="#5766ce"/><path d="m262.669 176.43c2.184 5.694 2.563 11.833 1.096 17.752l-2.95 11.907c-1.079 4.355-6.981 5.238-9.169 1.322-.301-.538-.604-1.031-.911-1.479-5.003-7.306-13.555-11.125-22.322-9.979-8.682 1.146-15.878 6.995-18.781 15.261-.139.397-.269.821-.388 1.272-1.163 4.388-7.129 5.044-9.246 1.028l-5.73-10.871c-2.843-5.394-3.948-11.443-3.194-17.495l1.517-12.186c.337-2.705 2.778-4.642 5.489-4.355l2.932.311c6.353.671 12.677-.675 18.289-3.902 3.504-2.015 7.249-2.474 11.136-1.355 6.227 1.786 12.687 1.579 18.692-.6l2.772-1.005c2.563-.929 5.398.365 6.373 2.911zm117.938-16.5-4.396-11.466c-.976-2.545-3.811-3.84-6.373-2.911l-2.772 1.005c-6.006 2.179-12.466 2.386-18.692.6-3.887-1.118-7.632-.66-11.136 1.355-5.612 3.227-11.937 4.574-18.289 3.902l-2.932-.311c-2.711-.287-5.152 1.649-5.489 4.355l-1.517 12.186c-.754 6.052.352 12.101 3.194 17.495l5.73 10.871c2.117 4.016 8.083 3.36 9.246-1.028.119-.45.248-.875.388-1.272 2.903-8.266 10.1-14.114 18.781-15.261 8.768-1.146 17.319 2.673 22.322 9.979.306.447.61.94.911 1.479 2.188 3.917 8.09 3.033 9.169-1.322l2.95-11.907c1.467-5.917 1.089-12.055-1.095-17.749z" fill="#8c96dd"/><path d="m440 398.846c-44.756 58.742-115.451 96.654-195 96.654s-150.244-37.912-195-96.654v-179.346c0-8.284 6.716-15 15-15h59c8.284 0 15 6.716 15 15v7h281c11.046 0 20 8.954 20 20z" fill="#24d3b5"/><path d="m65 204.5h31c-8.284 0-15 6.716-15 15v213.016c-11.345-10.229-21.729-21.503-31-33.671v-179.345c0-8.284 6.716-15 15-15z" fill="#20b7a1"/><path d="m381 424.5h-272c-5.523 0-10-4.477-10-10v-120c0-5.523 4.477-10 10-10h272c5.523 0 10 4.477 10 10v120c0 5.523-4.477 10-10 10z" fill="#fff5f5"/><path d="m138 424.5h-29c-5.523 0-10-4.477-10-10v-120c0-5.523 4.477-10 10-10h29c-5.523 0-10 4.477-10 10v120c0 5.523 4.477 10 10 10z" fill="#ececf1"/><path d="m249 321.229c0-4.142 3.358-7.5 7.5-7.5h75c4.142 0 7.5 3.358 7.5 7.5s-3.358 7.5-7.5 7.5h-75c-4.142 0-7.5-3.357-7.5-7.5zm92.5 22.5h-85c-4.142 0-7.5 3.358-7.5 7.5s3.358 7.5 7.5 7.5h85c4.142 0 7.5-3.358 7.5-7.5s-3.358-7.5-7.5-7.5zm-50 36.542h-35c-4.142 0-7.5 3.358-7.5 7.5 0 4.142 3.358 7.5 7.5 7.5h35c4.142 0 7.5-3.358 7.5-7.5 0-4.143-3.358-7.5-7.5-7.5z" fill="#d3d3d8"/><path d="m219 342.962v23.077c0 4.248-3.444 7.692-7.692 7.692h-23.077v23.077c0 4.248-3.444 7.692-7.692 7.692h-23.077c-4.248 0-7.692-3.444-7.692-7.692v-23.077h-23.077c-4.248 0-7.692-3.444-7.692-7.692v-23.077c0-4.248 3.444-7.692 7.692-7.692h23.077v-23.077c0-4.248 3.444-7.692 7.692-7.692h23.077c4.248 0 7.692 3.444 7.692 7.692v23.077h23.077c4.248-.001 7.692 3.443 7.692 7.692z" fill="#ff2ea6"/><path d="m219 342.962v23.077c0 4.248-3.444 7.692-7.692 7.692h-23.077v23.077c0 4.248-3.444 7.692-7.692 7.692h-11.539v-100h11.538c4.248 0 7.692 3.444 7.692 7.692v23.077h23.077c4.249 0 7.693 3.444 7.693 7.693z" fill="#ff50b5"/></g></svg>